G04 (created by PCBNEW (2013-07-07 BZR 4022)-stable) date 12/20/2013 10:24:56 AM*
%MOIN*%
G04 Gerber Fmt 3.4, Leading zero omitted, Abs format*
%FSLAX34Y34*%
G01*
G70*
G90*
G04 APERTURE LIST*
%ADD10C,0.00590551*%
%ADD11C,0.0625*%
%ADD12R,0.055X0.055*%
%ADD13C,0.055*%
%ADD14C,0.138*%
%ADD15R,0.06X0.06*%
%ADD16C,0.06*%
%ADD17O,0.0593X0.1187*%
%ADD18C,0.07*%
%ADD19R,0.07X0.07*%
%ADD20C,0.0787402*%
%ADD21C,0.1063*%
%ADD22C,0.165354*%
%ADD23C,0.149606*%
%ADD24C,0.16*%
%ADD25C,0.06*%
%ADD26C,0.01*%
%ADD27C,0.03*%
G04 APERTURE END LIST*
G54D10*
G54D11*
X53312Y-53491D03*
X53312Y-52491D03*
X53312Y-51491D03*
X53312Y-50491D03*
X53312Y-49491D03*
X53312Y-48491D03*
X53312Y-47491D03*
X53312Y-46491D03*
X53312Y-45491D03*
X53312Y-44491D03*
X53312Y-43491D03*
X53312Y-42491D03*
X53312Y-41491D03*
X53312Y-40491D03*
X53312Y-39491D03*
X53312Y-38491D03*
X53312Y-37491D03*
X53312Y-36491D03*
X53312Y-35491D03*
X53312Y-34491D03*
X53312Y-33491D03*
X53312Y-32491D03*
X53312Y-31491D03*
X53312Y-30491D03*
X53312Y-29491D03*
X53312Y-28491D03*
X53312Y-27491D03*
X53312Y-26491D03*
X53312Y-25491D03*
X53312Y-24491D03*
X37312Y-53491D03*
X37312Y-52491D03*
X37312Y-51491D03*
X37312Y-50491D03*
X37312Y-49491D03*
X37312Y-48491D03*
X37312Y-47491D03*
X37312Y-46491D03*
X37312Y-45491D03*
X37312Y-44491D03*
X37312Y-43491D03*
X37312Y-42491D03*
X37312Y-41491D03*
X37312Y-40491D03*
X37312Y-39491D03*
X37312Y-38491D03*
X37312Y-37491D03*
X37312Y-36491D03*
X37312Y-35491D03*
X37312Y-34491D03*
X37312Y-33491D03*
X37312Y-32491D03*
X37312Y-31491D03*
X37312Y-30491D03*
X37312Y-29491D03*
X37312Y-28491D03*
X37312Y-27491D03*
X37312Y-26491D03*
X37312Y-25491D03*
X37312Y-24491D03*
G54D12*
X60500Y-28500D03*
G54D13*
X60500Y-27500D03*
X61500Y-27500D03*
G54D12*
X63000Y-44500D03*
G54D13*
X62000Y-44500D03*
X62000Y-43500D03*
G54D14*
X76900Y-53900D03*
X65325Y-53900D03*
X76900Y-24600D03*
G54D13*
X66400Y-47610D03*
X66400Y-46040D03*
X66400Y-43677D03*
X66401Y-30291D03*
X66401Y-29503D03*
X66401Y-23992D03*
X66401Y-24779D03*
X66401Y-25566D03*
X66401Y-26354D03*
X66401Y-27141D03*
X66401Y-27929D03*
X66401Y-28716D03*
X75850Y-30291D03*
X75850Y-29503D03*
X75850Y-28716D03*
X75850Y-27929D03*
X75850Y-27141D03*
X66400Y-46827D03*
G54D15*
X32000Y-33500D03*
G54D16*
X31000Y-33500D03*
G54D17*
X56711Y-24200D03*
X58088Y-24200D03*
G54D13*
X32000Y-44500D03*
X31000Y-44500D03*
X35500Y-43500D03*
X35500Y-44500D03*
X33000Y-41500D03*
X31000Y-41500D03*
X35500Y-48500D03*
X35500Y-49500D03*
X57000Y-29000D03*
X58000Y-29000D03*
X63000Y-33000D03*
X63000Y-34000D03*
X56000Y-51500D03*
X56000Y-52500D03*
X58000Y-41000D03*
X57000Y-41000D03*
X60500Y-40500D03*
X60500Y-39500D03*
X60500Y-50000D03*
X60500Y-49000D03*
X61000Y-47000D03*
X63000Y-47000D03*
X63500Y-43000D03*
X63500Y-42000D03*
G54D18*
X31000Y-40500D03*
G54D19*
X31000Y-36500D03*
G54D20*
X31031Y-27999D03*
X34968Y-27999D03*
X32999Y-29967D03*
G54D12*
X62500Y-25000D03*
G54D13*
X62500Y-24000D03*
G54D12*
X60500Y-25000D03*
G54D13*
X60500Y-24000D03*
X34500Y-37000D03*
X35500Y-37000D03*
X34500Y-40000D03*
X35500Y-40000D03*
X61000Y-33000D03*
X61000Y-34000D03*
G54D18*
X31500Y-48000D03*
X31500Y-49000D03*
X31500Y-47000D03*
X33500Y-49500D03*
X33500Y-48500D03*
X33500Y-47500D03*
X33500Y-46500D03*
G54D12*
X59000Y-34000D03*
G54D13*
X59000Y-33000D03*
X59000Y-32000D03*
X59000Y-31000D03*
X56000Y-31000D03*
X56000Y-32000D03*
X56000Y-33000D03*
X56000Y-34000D03*
G54D12*
X59000Y-49500D03*
G54D13*
X59000Y-48500D03*
X59000Y-47500D03*
X59000Y-46500D03*
X59000Y-45500D03*
X59000Y-44500D03*
X59000Y-43500D03*
X56000Y-43500D03*
X56000Y-44500D03*
X56000Y-45500D03*
X56000Y-46500D03*
X56000Y-47500D03*
X56000Y-48500D03*
X56000Y-49500D03*
G54D16*
X60500Y-52150D03*
X59500Y-52150D03*
X59500Y-52937D03*
X60500Y-52937D03*
G54D21*
X62362Y-54000D03*
X57638Y-54000D03*
G54D12*
X59000Y-39000D03*
G54D13*
X59000Y-38000D03*
X59000Y-37000D03*
X59000Y-36000D03*
X56000Y-36000D03*
X56000Y-37000D03*
X56000Y-38000D03*
X56000Y-39000D03*
G54D22*
X33500Y-51318D03*
G54D23*
X33500Y-53681D03*
X35350Y-52500D03*
G54D24*
X30000Y-24500D03*
X30000Y-54000D03*
X79000Y-54000D03*
X79000Y-24500D03*
G54D25*
X33500Y-41500D02*
X35500Y-43500D01*
X33000Y-41500D02*
X33500Y-41500D01*
X60500Y-40500D02*
X59500Y-40500D01*
X57696Y-40000D02*
X56696Y-39000D01*
X59000Y-40000D02*
X57696Y-40000D01*
X59500Y-40500D02*
X59000Y-40000D01*
X62000Y-43500D02*
X62000Y-42500D01*
X60500Y-41000D02*
X60500Y-40500D01*
X62000Y-42500D02*
X60500Y-41000D01*
X62000Y-43500D02*
X63500Y-43000D01*
X59642Y-28317D02*
X59824Y-28500D01*
X57682Y-28317D02*
X59642Y-28317D01*
X57000Y-29000D02*
X57682Y-28317D01*
X60500Y-28500D02*
X59824Y-28500D01*
X56675Y-50175D02*
X56000Y-49500D01*
X60324Y-50175D02*
X56675Y-50175D01*
X60500Y-50000D02*
X60324Y-50175D01*
X37312Y-53491D02*
X53312Y-53491D01*
X63500Y-43000D02*
X63500Y-43000D01*
X66400Y-46040D02*
X63500Y-43000D01*
X56696Y-39000D02*
X56000Y-39000D01*
X56696Y-34696D02*
X56000Y-34000D01*
X56696Y-39000D02*
X56696Y-34696D01*
G54D26*
X54352Y-50450D02*
X53312Y-51491D01*
X54352Y-39647D02*
X54352Y-50450D01*
X56000Y-38000D02*
X54352Y-39647D01*
X54030Y-49773D02*
X53312Y-50491D01*
X54030Y-38969D02*
X54030Y-49773D01*
X56000Y-37000D02*
X54030Y-38969D01*
X53829Y-48974D02*
X53312Y-49491D01*
X53829Y-38170D02*
X53829Y-48974D01*
X56000Y-36000D02*
X53829Y-38170D01*
G54D27*
X63500Y-42000D02*
X63500Y-41500D01*
X61500Y-39500D02*
X60500Y-39500D01*
X63500Y-41500D02*
X61500Y-39500D01*
X60500Y-52937D02*
X61299Y-52937D01*
X61299Y-52937D02*
X62362Y-54000D01*
X63000Y-49000D02*
X63000Y-53362D01*
X63000Y-53362D02*
X62362Y-54000D01*
X63000Y-49000D02*
X60500Y-49000D01*
X66393Y-24000D02*
X66401Y-23992D01*
X62500Y-24000D02*
X66393Y-24000D01*
X66401Y-29503D02*
X66401Y-30291D01*
X63610Y-48390D02*
X63610Y-47610D01*
X63000Y-49000D02*
X63610Y-48390D01*
X66400Y-47610D02*
X63610Y-47610D01*
X63610Y-47610D02*
X63000Y-47000D01*
X31000Y-40500D02*
X32025Y-39474D01*
X34974Y-39474D02*
X35500Y-40000D01*
X32025Y-39474D02*
X34974Y-39474D01*
X60500Y-38500D02*
X60500Y-39500D01*
X59000Y-37000D02*
X60500Y-38500D01*
X59437Y-54000D02*
X60500Y-52937D01*
X57637Y-54000D02*
X59437Y-54000D01*
X75062Y-29503D02*
X75850Y-28716D01*
X66401Y-29503D02*
X75062Y-29503D01*
X36735Y-52491D02*
X37312Y-52491D01*
X36726Y-52500D02*
X36735Y-52491D01*
X35350Y-52500D02*
X36726Y-52500D01*
X36735Y-51068D02*
X37312Y-50491D01*
X36735Y-52491D02*
X36735Y-51068D01*
X32025Y-34525D02*
X32025Y-39474D01*
X31000Y-33500D02*
X32025Y-34525D01*
X36749Y-27750D02*
X31000Y-33500D01*
X36749Y-26054D02*
X36749Y-27750D01*
X37312Y-25491D02*
X36749Y-26054D01*
X37312Y-25491D02*
X53312Y-25491D01*
X57542Y-24461D02*
X57542Y-24200D01*
X56512Y-25491D02*
X57542Y-24461D01*
X53312Y-25491D02*
X56512Y-25491D01*
X58088Y-24200D02*
X57542Y-24200D01*
X58835Y-24000D02*
X58635Y-24200D01*
X60500Y-24000D02*
X58835Y-24000D01*
X58088Y-24200D02*
X58635Y-24200D01*
X62500Y-24000D02*
X61500Y-24000D01*
X61500Y-24000D02*
X60500Y-24000D01*
X56834Y-46665D02*
X56000Y-47500D01*
X56834Y-45665D02*
X56834Y-46665D01*
X59000Y-43500D02*
X56834Y-45665D01*
X61500Y-24000D02*
X61500Y-27500D01*
X61500Y-29503D02*
X66401Y-29503D01*
X61500Y-27500D02*
X61500Y-29503D01*
X60003Y-31000D02*
X59000Y-31000D01*
X61500Y-29503D02*
X60003Y-31000D01*
X30899Y-48600D02*
X31500Y-48000D01*
X30899Y-51080D02*
X30899Y-48600D01*
X33500Y-53681D02*
X30899Y-51080D01*
X34395Y-45604D02*
X35500Y-44500D01*
X32104Y-45604D02*
X34395Y-45604D01*
X32104Y-47395D02*
X32104Y-45604D01*
X31500Y-48000D02*
X32104Y-47395D01*
X32104Y-45604D02*
X31000Y-44500D01*
X55443Y-50943D02*
X56000Y-51500D01*
X55443Y-48056D02*
X55443Y-50943D01*
X56000Y-47500D02*
X55443Y-48056D01*
X53895Y-52491D02*
X53312Y-52491D01*
X55443Y-50943D02*
X53895Y-52491D01*
G54D26*
X58500Y-41000D02*
X62000Y-44500D01*
X58000Y-41000D02*
X58500Y-41000D01*
X60492Y-46007D02*
X62000Y-44500D01*
X58492Y-46007D02*
X60492Y-46007D01*
X56000Y-48500D02*
X58492Y-46007D01*
X31000Y-36500D02*
X31000Y-37000D01*
X33500Y-49500D02*
X35500Y-49500D01*
X30499Y-37500D02*
X31000Y-37000D01*
X30499Y-40730D02*
X30499Y-37500D01*
X30822Y-41053D02*
X30499Y-40730D01*
X31278Y-41053D02*
X30822Y-41053D01*
X34242Y-44017D02*
X31278Y-41053D01*
X35630Y-44017D02*
X34242Y-44017D01*
X35932Y-44319D02*
X35630Y-44017D01*
X35932Y-49067D02*
X35932Y-44319D01*
X35500Y-49500D02*
X35932Y-49067D01*
X33500Y-48500D02*
X35500Y-48500D01*
X59000Y-34000D02*
X61000Y-34000D01*
X61000Y-34000D02*
X63000Y-34000D01*
X37485Y-37000D02*
X35500Y-37000D01*
X43485Y-31000D02*
X37485Y-37000D01*
X56000Y-31000D02*
X43485Y-31000D01*
X61000Y-33000D02*
X63000Y-33000D01*
X61000Y-33000D02*
X59000Y-33000D01*
X38812Y-27991D02*
X37312Y-26491D01*
X54183Y-27991D02*
X38812Y-27991D01*
X57623Y-31430D02*
X54183Y-27991D01*
X74710Y-31430D02*
X57623Y-31430D01*
X75850Y-30291D02*
X74710Y-31430D01*
M02*
