M48
INCH,TZ
T1C0.032
T2C0.035
T3C0.039
T4C0.040
T5C0.041
T6C0.047
T7C0.091
T8C0.118
T9C0.128
T10C0.138
%
G90
G05
T1
X3.1Y-3.35
X3.1Y-4.15
X3.1Y-4.45
X3.2Y-3.35
X3.2Y-4.45
X3.3Y-4.15
X3.45Y-3.7
X3.45Y-4.
X3.55Y-3.7
X3.55Y-4.
X3.55Y-4.35
X3.55Y-4.45
X3.55Y-4.85
X3.55Y-4.95
X5.6Y-3.1
X5.6Y-3.2
X5.6Y-3.3
X5.6Y-3.4
X5.6Y-3.6
X5.6Y-3.7
X5.6Y-3.8
X5.6Y-3.9
X5.6Y-4.35
X5.6Y-4.45
X5.6Y-4.55
X5.6Y-4.65
X5.6Y-4.75
X5.6Y-4.85
X5.6Y-4.95
X5.6Y-5.15
X5.6Y-5.25
X5.7Y-2.9
X5.7Y-4.1
X5.8Y-2.9
X5.8Y-4.1
X5.9Y-3.1
X5.9Y-3.2
X5.9Y-3.3
X5.9Y-3.4
X5.9Y-3.6
X5.9Y-3.7
X5.9Y-3.8
X5.9Y-3.9
X5.9Y-4.35
X5.9Y-4.45
X5.9Y-4.55
X5.9Y-4.65
X5.9Y-4.75
X5.9Y-4.85
X5.9Y-4.95
X5.95Y-5.215
X5.95Y-5.2937
X6.05Y-2.4
X6.05Y-2.5
X6.05Y-2.75
X6.05Y-2.85
X6.05Y-3.95
X6.05Y-4.05
X6.05Y-4.9
X6.05Y-5.
X6.05Y-5.215
X6.05Y-5.2937
X6.1Y-3.3
X6.1Y-3.4
X6.1Y-4.7
X6.15Y-2.75
X6.2Y-4.35
X6.2Y-4.45
X6.25Y-2.4
X6.25Y-2.5
X6.3Y-3.3
X6.3Y-3.4
X6.3Y-4.45
X6.3Y-4.7
X6.35Y-4.2
X6.35Y-4.3
T2
X6.64Y-4.3677
X6.64Y-4.604
X6.64Y-4.6827
X6.64Y-4.761
X6.6402Y-2.3992
X6.6402Y-2.478
X6.6402Y-2.5567
X6.6402Y-2.6354
X6.6402Y-2.7142
X6.6402Y-2.7929
X6.6402Y-2.8717
X6.6402Y-2.9504
X6.6402Y-3.0291
X7.585Y-2.7142
X7.585Y-2.7929
X7.585Y-2.8717
X7.585Y-2.9504
X7.585Y-3.0291
T3
X5.6711Y-2.42
X5.8089Y-2.42
T4
X3.1Y-3.65
X3.1Y-4.05
X3.15Y-4.7
X3.15Y-4.8
X3.15Y-4.9
X3.35Y-4.65
X3.35Y-4.75
X3.35Y-4.85
X3.35Y-4.95
T5
X3.7313Y-2.4491
X3.7313Y-2.5491
X3.7313Y-2.6491
X3.7313Y-2.7491
X3.7313Y-2.8491
X3.7313Y-2.9491
X3.7313Y-3.0491
X3.7313Y-3.1491
X3.7313Y-3.2491
X3.7313Y-3.3491
X3.7313Y-3.4491
X3.7313Y-3.5491
X3.7313Y-3.6491
X3.7313Y-3.7491
X3.7313Y-3.8491
X3.7313Y-3.9491
X3.7313Y-4.0491
X3.7313Y-4.1491
X3.7313Y-4.2491
X3.7313Y-4.3491
X3.7313Y-4.4491
X3.7313Y-4.5491
X3.7313Y-4.6491
X3.7313Y-4.7491
X3.7313Y-4.8491
X3.7313Y-4.9491
X3.7313Y-5.0491
X3.7313Y-5.1491
X3.7313Y-5.2491
X3.7313Y-5.3491
X5.3313Y-2.4491
X5.3313Y-2.5491
X5.3313Y-2.6491
X5.3313Y-2.7491
X5.3313Y-2.8491
X5.3313Y-2.9491
X5.3313Y-3.0491
X5.3313Y-3.1491
X5.3313Y-3.2491
X5.3313Y-3.3491
X5.3313Y-3.4491
X5.3313Y-3.5491
X5.3313Y-3.6491
X5.3313Y-3.7491
X5.3313Y-3.8491
X5.3313Y-3.9491
X5.3313Y-4.0491
X5.3313Y-4.1491
X5.3313Y-4.2491
X5.3313Y-4.3491
X5.3313Y-4.4491
X5.3313Y-4.5491
X5.3313Y-4.6491
X5.3313Y-4.7491
X5.3313Y-4.8491
X5.3313Y-4.9491
X5.3313Y-5.0491
X5.3313Y-5.1491
X5.3313Y-5.2491
X5.3313Y-5.3491
T6
X3.1031Y-2.7999
X3.3Y-2.9968
X3.4968Y-2.7999
T7
X5.7638Y-5.4
X6.2362Y-5.4
T8
X3.35Y-5.3681
X3.535Y-5.25
T9
X3.Y-2.45
X3.Y-5.4
X6.5325Y-5.39
X7.69Y-2.46
X7.69Y-5.39
X7.9Y-2.45
X7.9Y-5.4
T10
X3.35Y-5.1319
T0
M30
